{"glyphs":{"0":{"ha":785,"x_min":0,"x_max":0,"o":"m 175 1075 b 121 886 110 1033 121 922 l 121 233 b 190 18 121 146 111 61 b 614 26 275 -28 531 -19 b 679 256 685 65 679 157 l 679 883 b 633 1067 679 921 679 1026 b 301 1111 567 1125 329 1114 b 175 1075 261 1107 208 1096 z m 356 921 b 431 926 374 935 408 938 b 464 856 457 913 464 893 l 464 779 l 464 338 b 431 181 464 261 469 194 b 363 182 414 174 382 168 b 336 332 332 203 336 258 l 336 776 b 356 921 336 849 333 904 z "},"1":{"ha":785,"x_min":0,"x_max":0,"o":"m 292 1099 l 292 0 l 508 0 l 508 1099 z "},"2":{"ha":785,"x_min":0,"x_max":0,"o":"m 581 467 b 672 754 676 610 672 606 l 672 864 b 603 1076 672 947 675 1033 b 196 1076 514 1129 275 1122 b 128 847 119 1032 128 951 l 128 678 l 339 678 l 339 743 b 358 903 339 826 333 883 b 417 914 375 917 397 919 b 457 878 439 908 447 897 b 450 699 460 871 461 736 b 351 519 433 636 400 589 l 196 297 b 133 0 121 189 135 175 l 675 0 l 675 203 l 404 203 z "},"3":{"ha":785,"x_min":0,"x_max":0,"o":"m 676 790 l 676 886 b 611 1086 676 961 686 1047 b 190 1082 540 1122 261 1122 b 122 838 113 1039 122 929 l 122 735 l 313 735 l 338 735 l 338 767 b 360 926 338 840 333 903 b 419 938 375 940 400 943 b 464 897 443 931 457 917 b 458 710 469 879 471 736 b 350 669 438 668 404 669 l 350 519 b 451 500 381 519 428 521 b 475 249 488 468 479 281 b 438 188 469 215 458 197 b 363 189 413 175 379 178 b 332 356 325 211 332 276 l 332 436 l 117 436 l 117 254 b 185 35 117 214 106 82 b 625 35 265 -12 544 -14 b 689 275 694 76 689 129 l 689 433 b 586 606 689 543 694 571 b 676 790 686 640 676 693 z "},"4":{"ha":785,"x_min":0,"x_max":0,"o":"m 89 264 l 429 264 l 429 0 l 644 0 l 644 264 l 711 264 l 711 458 l 644 458 l 644 1096 l 447 1096 l 89 461 z m 429 728 l 429 458 l 297 458 z "},"5":{"ha":785,"x_min":0,"x_max":0,"o":"m 117 1106 l 117 493 l 328 493 b 363 539 338 510 344 525 b 429 539 374 546 417 547 b 461 403 467 514 461 479 l 461 343 b 433 188 461 225 461 203 b 360 183 419 181 374 175 b 332 335 328 201 332 239 l 332 378 l 111 378 l 111 250 b 181 31 111 168 103 78 b 614 31 267 -21 521 -18 b 682 235 692 71 682 150 l 682 544 b 643 694 682 607 682 660 b 329 714 581 749 369 733 l 329 921 l 665 921 l 665 1106 z "},"6":{"ha":785,"x_min":0,"x_max":0,"o":"m 682 868 b 614 1085 682 960 692 1039 b 183 1085 533 1131 265 1129 b 114 897 108 1044 114 946 l 114 225 b 183 31 114 171 106 78 b 611 26 267 -19 533 -17 b 686 254 699 76 686 192 l 686 533 b 647 678 686 599 688 646 b 332 701 599 717 386 714 l 332 767 b 363 929 332 849 328 907 b 433 933 385 944 418 942 b 465 783 471 913 465 858 l 682 783 z m 363 525 b 433 529 378 535 413 542 b 465 376 469 508 465 467 l 465 343 b 436 183 465 232 469 201 b 364 183 418 174 386 171 b 335 251 342 196 335 213 l 335 369 b 363 525 335 438 331 503 z "},"7":{"ha":785,"x_min":0,"x_max":0,"o":"m 126 1093 l 126 908 l 435 908 l 139 0 l 367 0 l 675 908 l 675 1093 z "},"8":{"ha":785,"x_min":0,"x_max":0,"o":"m 681 781 l 681 864 b 613 1086 681 961 690 1042 b 182 1086 524 1138 271 1136 b 110 864 103 1040 110 950 l 110 788 b 183 607 110 717 97 653 b 108 471 100 568 108 528 l 108 249 b 176 28 108 204 99 75 b 624 31 267 -28 532 -21 b 690 249 697 71 690 196 l 690 490 b 607 611 690 565 676 581 b 681 781 692 651 681 699 z m 357 929 b 426 935 367 938 414 940 b 461 883 446 928 461 918 l 461 738 b 374 674 461 679 407 664 b 332 714 354 679 335 694 l 332 822 b 357 929 332 872 329 910 z m 364 510 b 438 510 378 518 422 518 b 468 438 461 496 468 475 l 468 314 b 444 189 468 235 469 211 b 365 182 428 174 388 172 b 331 246 344 189 331 206 l 331 375 b 364 510 331 449 324 488 z "},"9":{"ha":785,"x_min":0,"x_max":0,"o":"m 121 265 b 183 25 121 164 111 68 b 615 25 268 -25 533 -21 b 682 201 688 64 682 157 l 682 890 b 615 1085 682 964 690 1043 b 183 1085 528 1135 265 1132 b 117 868 107 1040 117 938 l 117 556 b 164 424 117 519 119 457 b 465 408 231 375 399 390 l 465 336 l 465 256 b 438 182 465 208 463 196 b 364 176 424 174 378 171 b 336 254 335 193 336 222 l 336 294 l 336 332 l 121 332 z m 360 928 b 435 931 376 940 407 943 b 467 782 471 914 467 849 l 467 740 b 435 588 467 660 472 606 b 363 588 417 578 382 575 b 336 735 332 607 336 632 l 336 776 b 360 928 336 882 333 907 z "}," ":{"ha":335,"x_min":0,"x_max":0,"o":""},"!":{"ha":339,"x_min":0,"x_max":0,"o":"m 89 235 l 265 235 l 265 1075 l 89 1075 z m 88 0 l 268 0 l 268 188 l 88 188 z "},"$":{"ha":725,"x_min":0,"x_max":0,"o":"m 339 1110 b 146 1065 257 1108 192 1106 b 89 878 92 1017 89 901 l 89 710 b 339 485 89 489 157 500 l 339 186 b 304 260 315 186 304 215 l 304 343 l 304 424 l 90 424 l 90 375 l 90 247 b 342 -7 90 28 144 4 l 342 -65 l 406 -65 l 406 -8 b 593 35 449 -4 544 1 b 651 225 658 78 651 164 l 651 443 b 613 618 651 493 654 574 b 400 682 553 681 439 682 l 400 917 b 436 793 438 918 435 888 l 436 749 l 651 749 l 651 846 b 617 1046 651 944 657 1007 b 403 1107 569 1092 449 1107 l 403 1181 l 339 1181 z m 338 914 l 338 693 b 303 801 307 693 303 753 b 338 914 303 881 308 913 z m 404 467 b 436 400 428 465 436 450 l 436 261 b 404 189 436 214 433 192 z "},"%":{"ha":1044,"x_min":0,"x_max":0,"o":"m 411 0 l 456 0 l 639 1171 l 593 1171 z m 575 497 l 575 254 b 622 68 575 172 569 101 b 914 68 660 43 876 47 b 969 249 978 103 969 181 l 969 492 b 932 667 969 572 971 625 b 668 688 893 708 701 697 b 575 497 568 657 575 583 z m 750 572 b 801 571 760 581 796 576 b 822 431 824 549 822 508 l 822 315 l 822 240 b 796 169 822 208 821 182 b 743 172 786 165 757 163 b 724 310 721 189 724 225 l 724 428 b 750 572 724 500 719 553 z m 89 994 l 89 753 b 135 567 89 671 83 599 b 428 567 174 542 390 546 b 483 746 492 601 483 678 l 483 990 b 446 1164 483 1071 485 1122 b 182 1185 407 1206 215 1194 b 89 994 82 1154 89 1081 z m 264 1071 b 315 1069 274 1078 310 1075 b 336 929 338 1047 336 1007 l 336 814 l 336 739 b 310 668 336 707 335 679 b 257 671 300 664 271 660 b 238 807 235 688 238 722 l 238 926 b 264 1071 238 997 233 1051 z "},"&":{"ha":722,"x_min":0,"x_max":0,"o":"m 625 860 b 553 1078 625 896 631 1036 b 153 1075 467 1124 224 1115 b 89 794 72 1028 89 849 l 89 692 b 133 557 89 617 96 608 b 72 425 67 519 72 486 l 72 238 b 156 15 72 174 61 58 b 613 54 250 -28 539 -26 l 722 -36 l 722 232 l 638 317 l 638 611 l 431 611 l 431 547 b 297 878 281 694 286 718 b 329 939 299 904 301 925 b 382 938 344 946 371 946 b 411 774 414 913 411 836 l 411 714 l 625 714 z m 393 153 b 324 150 374 140 339 142 b 290 317 286 174 290 254 l 290 369 l 419 238 b 393 153 419 194 424 174 z "},"'":{"ha":338,"x_min":0,"x_max":0,"o":"m 89 913 l 154 913 l 81 779 l 175 779 l 264 917 l 264 1096 l 89 1096 z "},"(":{"ha":385,"x_min":0,"x_max":0,"o":"m 89 214 b 174 10 89 146 81 57 b 390 -15 206 -6 303 -15 l 390 161 b 311 288 301 168 311 190 l 311 794 b 390 921 311 890 301 913 l 390 1096 b 174 1071 303 1096 206 1088 b 89 867 81 1025 89 935 z "},")":{"ha":385,"x_min":0,"x_max":0,"o":"m 311 867 b 226 1071 311 935 319 1025 b 10 1096 194 1088 97 1096 l 10 921 b 89 794 99 913 89 890 l 89 288 b 10 161 89 190 99 168 l 10 -15 b 226 10 97 -15 194 -6 b 311 214 319 57 311 146 z "},"*":{"ha":364,"x_min":0,"x_max":0,"o":"m 164 968 l 104 997 l 82 953 l 142 922 l 82 879 l 108 840 l 164 872 l 164 811 l 215 811 l 215 868 l 272 839 l 297 885 l 239 921 l 293 954 l 268 999 l 213 968 l 213 1032 l 164 1032 z "},",":{"ha":338,"x_min":0,"x_max":0,"o":"m 89 0 l 154 0 l 81 -133 l 175 -133 l 264 3 l 264 183 l 89 183 z "},"-":{"ha":539,"x_min":0,"x_max":0,"o":"m 89 500 l 464 500 l 464 656 l 89 656 z "},".":{"ha":339,"x_min":0,"x_max":0,"o":"m 89 0 l 265 0 l 265 193 l 89 193 z "},"/":{"ha":360,"x_min":0,"x_max":0,"o":"m 249 1093 l 82 0 l 125 0 l 293 1093 z "},":":{"ha":338,"x_min":0,"x_max":0,"o":"m 89 467 l 89 283 l 264 283 l 264 467 z m 89 183 l 89 0 l 264 0 l 264 183 z "},";":{"ha":338,"x_min":0,"x_max":0,"o":"m 89 467 l 89 283 l 264 283 l 264 467 z m 89 0 l 154 0 l 81 -133 l 175 -133 l 264 3 l 264 183 l 89 183 z "},"?":{"ha":725,"x_min":0,"x_max":0,"o":"m 596 456 b 651 608 656 489 651 569 l 651 843 b 586 1058 651 882 660 1018 b 161 1061 513 1099 239 1104 b 89 836 82 1017 89 896 l 89 669 l 301 669 l 301 749 b 325 903 301 775 297 879 b 388 914 343 918 365 919 b 431 875 411 907 425 893 b 424 625 440 846 436 643 b 257 585 396 585 335 585 l 257 547 l 257 247 l 472 247 l 472 268 l 472 436 b 596 456 521 436 575 443 z m 256 0 l 472 0 l 472 188 l 256 188 z "},"A":{"ha":696,"x_min":0,"x_max":0,"o":"m 36 0 l 256 0 l 288 261 l 414 261 l 439 0 l 672 0 l 507 1099 l 203 1099 z m 346 804 l 356 947 l 361 804 l 396 451 l 308 451 z "},"B":{"ha":731,"x_min":0,"x_max":0,"o":"m 89 1076 l 89 0 l 428 0 b 624 35 497 0 585 -3 b 668 229 672 82 668 222 l 668 371 b 572 578 668 460 688 544 b 656 782 667 615 656 696 l 656 846 b 613 1067 656 943 658 1022 b 419 1097 578 1099 506 1097 l 89 1097 z m 313 921 b 433 839 379 921 433 926 l 433 763 b 313 676 433 676 376 676 l 313 900 z m 319 465 b 440 396 383 465 440 465 l 440 260 b 319 183 440 174 392 183 z "},"C":{"ha":719,"x_min":0,"x_max":0,"o":"m 646 840 b 581 1078 646 947 653 1035 b 157 1078 501 1125 218 1114 b 89 867 82 1033 89 953 l 89 213 b 160 22 89 164 82 65 b 589 31 231 -17 501 -17 b 651 278 657 68 651 140 l 651 456 l 435 456 l 435 343 b 408 188 435 251 436 206 b 339 183 393 176 358 174 b 299 335 294 206 299 264 l 299 781 b 325 926 299 872 297 904 b 396 929 342 940 381 938 b 429 765 436 910 429 846 l 429 654 l 646 654 z "},"D":{"ha":731,"x_min":0,"x_max":0,"o":"m 89 0 l 388 0 b 611 40 436 0 561 -7 b 656 215 656 83 656 174 l 656 888 b 613 1067 656 976 656 1029 b 425 1096 572 1101 467 1096 l 89 1096 z m 310 922 b 422 903 363 924 404 922 b 442 776 444 879 442 817 l 442 328 b 406 188 442 254 447 208 b 310 182 393 181 365 182 z "},"E":{"ha":653,"x_min":0,"x_max":0,"o":"m 89 0 l 596 0 l 596 196 l 304 196 l 304 458 l 304 478 l 550 478 l 550 506 l 550 679 l 513 679 l 304 679 l 304 914 l 578 914 l 578 1096 l 89 1096 z "},"F":{"ha":658,"x_min":0,"x_max":0,"o":"m 89 0 l 310 0 l 310 479 l 540 479 l 540 517 l 540 681 l 308 681 l 308 914 l 585 914 l 585 1075 l 585 1097 l 89 1097 z "},"G":{"ha":728,"x_min":0,"x_max":0,"o":"m 651 867 b 583 1085 651 947 660 1042 b 160 1078 501 1131 244 1122 b 89 875 81 1036 89 944 l 89 189 b 183 4 89 122 86 43 b 507 42 265 -28 435 -36 l 518 0 l 653 0 l 653 582 l 357 582 l 357 390 l 429 390 l 439 390 l 439 324 b 408 164 439 256 443 185 b 338 164 392 154 358 153 b 303 304 299 186 303 278 l 303 776 b 332 922 303 850 299 899 b 406 922 353 938 386 932 b 436 847 438 906 436 879 l 436 767 l 436 672 l 651 672 z "},"H":{"ha":735,"x_min":0,"x_max":0,"o":"m 89 0 l 304 0 l 304 483 l 446 483 l 446 0 l 660 0 l 660 1097 l 446 1097 l 446 681 l 304 681 l 304 710 l 304 1097 l 89 1097 z "},"I":{"ha":374,"x_min":0,"x_max":0,"o":"m 89 1100 l 89 0 l 299 0 l 299 1100 z "},"J":{"ha":715,"x_min":0,"x_max":0,"o":"m 422 1090 l 422 321 b 388 175 422 258 426 197 b 338 175 376 168 351 168 b 313 329 310 193 313 261 l 313 465 l 271 465 l 89 465 l 89 244 b 165 15 89 175 81 61 b 574 15 253 -33 497 -31 b 640 222 650 60 640 135 l 640 1090 z "},"K":{"ha":736,"x_min":0,"x_max":0,"o":"m 89 1097 l 89 0 l 303 0 l 303 413 l 467 0 l 729 0 l 458 599 l 685 1097 l 467 1097 l 299 736 l 299 1097 z "},"L":{"ha":633,"x_min":0,"x_max":0,"o":"m 89 1096 l 89 0 l 567 0 l 567 196 l 314 196 l 314 1096 z "},"M":{"ha":889,"x_min":0,"x_max":0,"o":"m 815 0 l 815 1099 l 533 1099 l 463 599 l 450 476 l 442 599 l 371 1099 l 89 1099 l 89 0 l 286 0 b 282 631 297 124 282 631 l 275 790 l 299 582 l 381 0 l 524 0 l 606 582 l 629 790 l 622 631 b 618 0 622 631 608 121 z "},"N":{"ha":732,"x_min":0,"x_max":0,"o":"m 657 0 l 657 1097 l 457 1097 b 465 585 443 931 465 585 l 471 450 l 444 617 l 328 1097 l 89 1097 l 89 0 l 290 0 b 281 513 303 167 281 513 l 275 647 l 301 481 l 417 0 z "},"O":{"ha":731,"x_min":0,"x_max":0,"o":"m 153 1078 b 89 876 82 1033 89 981 l 89 249 b 161 22 89 171 86 65 b 588 28 235 -21 503 -17 b 656 231 665 68 656 149 l 656 888 b 606 1071 656 914 658 1025 b 278 1114 544 1122 336 1119 b 153 1078 240 1110 186 1099 z m 331 924 b 406 926 346 933 383 939 b 438 779 443 907 438 854 l 438 342 b 403 188 438 235 443 204 b 336 189 383 181 357 175 b 308 336 303 210 308 261 l 308 774 b 331 924 308 865 303 906 z "},"P":{"ha":736,"x_min":0,"x_max":0,"o":"m 89 1100 l 89 0 l 310 0 l 310 433 l 400 433 b 614 478 456 433 564 426 b 661 678 660 524 661 593 l 661 861 b 615 1067 661 906 663 1022 b 414 1100 572 1106 429 1100 z m 311 918 b 438 860 388 918 438 921 l 438 661 b 311 614 438 607 379 615 z "},"Q":{"ha":731,"x_min":0,"x_max":0,"o":"m 656 181 l 656 872 b 588 1082 656 956 665 1038 b 160 1082 514 1125 226 1122 b 89 857 82 1036 89 972 l 89 196 b 129 47 89 129 90 85 b 396 -12 181 -1 340 -12 l 396 -25 b 433 -185 396 -99 399 -156 b 672 -185 476 -219 624 -210 l 672 -28 b 582 -47 643 -40 608 -49 b 535 1 543 -44 543 -22 b 656 181 639 1 656 111 z m 332 922 b 406 926 350 935 382 940 b 439 776 444 906 439 849 l 439 343 b 407 186 439 251 444 199 b 336 186 385 176 353 175 b 307 332 303 207 307 250 l 307 847 b 332 922 307 881 307 904 z "},"R":{"ha":722,"x_min":0,"x_max":0,"o":"m 89 1096 l 89 0 l 304 0 l 304 463 l 317 463 b 424 349 415 463 424 424 l 424 182 l 424 117 b 458 0 424 93 440 0 l 667 0 l 690 0 b 649 217 649 71 649 128 l 649 349 b 567 524 649 422 665 486 b 661 725 671 567 661 624 l 661 883 b 614 1065 661 1007 663 1021 b 418 1096 579 1099 506 1096 z m 308 919 b 431 861 379 919 431 921 l 431 722 b 308 639 431 635 381 639 z "},"S":{"ha":731,"x_min":0,"x_max":0,"o":"m 654 926 b 594 1078 654 988 654 1035 b 163 1085 514 1136 244 1124 b 89 883 85 1049 89 964 l 89 715 b 278 493 89 543 92 511 l 300 493 b 429 451 349 493 401 492 b 435 222 440 435 440 238 b 392 181 425 193 418 188 b 331 188 365 172 343 176 b 304 356 301 208 304 268 l 304 425 l 89 425 l 89 236 b 157 26 89 151 81 75 b 585 22 240 -25 514 -17 b 656 236 665 67 656 175 l 656 439 b 593 640 656 503 663 590 b 338 696 522 690 365 678 b 307 863 294 725 304 832 b 340 929 310 901 318 919 b 414 926 363 940 396 935 b 439 749 443 913 439 840 l 654 749 z "},"T":{"ha":588,"x_min":0,"x_max":0,"o":"m 38 1092 l 38 910 l 188 910 l 188 0 l 407 0 l 407 910 l 565 910 l 565 1092 z "},"U":{"ha":732,"x_min":0,"x_max":0,"o":"m 89 1096 l 89 257 b 163 21 89 154 83 67 b 589 21 243 -26 521 -19 b 657 244 667 67 657 196 l 657 1096 l 439 1096 l 439 338 b 406 182 439 239 443 203 b 336 181 385 169 353 172 b 307 329 303 199 307 258 l 307 1096 z "},"V":{"ha":708,"x_min":0,"x_max":0,"o":"m 33 1096 l 201 0 l 511 0 l 681 1096 l 465 1096 l 369 385 l 360 264 l 351 385 l 251 1096 z "},"W":{"ha":908,"x_min":0,"x_max":0,"o":"m 628 501 l 619 331 l 611 501 l 547 1099 l 350 1099 l 290 501 l 281 331 l 274 501 l 235 1099 l 33 1099 l 135 0 l 400 0 l 450 601 l 485 0 l 750 0 l 882 1099 l 671 1099 b 628 501 671 1099 628 500 z "},"X":{"ha":742,"x_min":0,"x_max":0,"o":"m 408 931 l 378 818 l 344 933 l 289 1100 l 72 1100 l 250 592 l 36 0 l 254 0 l 340 246 l 371 358 l 406 243 l 508 0 l 718 0 l 483 592 l 681 1100 l 467 1100 z "},"Y":{"ha":739,"x_min":0,"x_max":0,"o":"m 28 1096 l 257 438 l 257 0 l 481 0 l 481 438 l 722 1096 l 506 1096 l 403 788 l 379 693 l 357 782 l 253 1096 z "},"Z":{"ha":679,"x_min":0,"x_max":0,"o":"m 82 1092 l 82 914 l 363 914 l 72 175 l 72 0 l 614 0 l 614 196 l 322 196 l 606 917 l 606 1092 z "},"^":{"ha":533,"x_min":0,"x_max":0,"o":"m 82 1092 l 268 1138 l 467 1092 l 265 1228 z "},"`":{"ha":417,"x_min":0,"x_max":0,"o":"m 294 1146 b 132 1256 263 1174 167 1261 b 89 1221 113 1251 99 1239 b 86 1174 79 1204 81 1185 b 250 1113 107 1133 222 1117 l 350 1096 z "},"a":{"ha":658,"x_min":0,"x_max":0,"o":"m 149 532 b 79 331 71 494 79 382 l 79 222 b 139 14 79 171 74 51 b 526 17 196 -18 478 -8 b 585 208 592 50 585 154 l 585 628 b 517 832 585 694 589 794 b 147 828 450 867 208 867 b 89 601 83 788 89 671 l 279 601 b 311 694 279 647 279 675 b 358 696 329 704 349 701 b 385 547 394 676 386 607 b 149 532 343 553 215 564 z m 328 396 b 375 381 343 400 363 394 b 383 190 388 365 386 210 b 344 143 381 167 381 151 b 297 150 329 139 310 140 b 281 332 272 172 278 303 b 328 396 283 363 293 390 z "},"b":{"ha":676,"x_min":0,"x_max":0,"o":"m 89 1151 l 89 231 b 150 25 89 171 81 64 b 539 29 231 -19 454 -18 b 603 235 610 69 603 124 l 603 686 b 544 826 603 733 601 790 b 293 843 483 865 354 864 l 293 1151 z m 303 689 b 364 701 321 708 342 711 b 397 553 400 688 397 626 l 397 300 l 397 224 b 365 153 397 192 392 165 b 313 153 349 144 328 143 b 290 296 286 171 290 218 l 290 551 b 303 689 290 606 288 671 z "},"c":{"ha":665,"x_min":0,"x_max":0,"o":"m 590 639 b 539 826 590 711 597 792 b 149 833 471 867 213 865 b 89 650 82 799 89 711 l 89 222 b 153 21 89 151 88 57 b 539 22 218 -17 475 -15 b 596 240 604 61 596 165 l 596 344 l 392 344 l 392 304 b 365 150 392 228 396 169 b 318 149 351 142 332 140 b 290 290 286 167 290 238 l 290 556 b 313 700 290 628 286 685 b 363 703 324 708 353 710 b 392 535 396 686 392 619 l 392 475 l 590 475 z "},"d":{"ha":682,"x_min":0,"x_max":0,"o":"m 400 1151 l 400 843 b 135 819 343 864 194 867 b 89 674 92 786 89 749 l 89 239 b 161 24 89 135 82 68 b 549 28 236 -19 469 -18 b 608 236 617 68 608 183 l 608 1151 z m 311 686 b 367 700 324 700 349 708 b 403 551 408 686 403 628 l 403 294 b 378 150 403 231 407 168 b 324 150 363 142 339 142 b 299 293 294 167 299 215 l 299 551 b 311 686 299 629 296 668 z "},"e":{"ha":667,"x_min":0,"x_max":0,"o":"m 592 633 b 544 829 592 719 599 796 b 151 836 482 868 206 864 b 89 653 85 803 89 722 l 89 203 b 156 19 89 163 85 60 b 535 15 215 -15 478 -15 b 592 218 596 49 592 61 l 592 256 l 592 290 l 388 290 l 388 244 b 363 149 388 199 393 160 b 315 149 343 142 328 140 b 297 303 294 164 297 197 l 297 365 l 592 365 z m 397 521 l 293 521 l 293 624 b 322 704 293 653 290 688 b 374 701 335 711 354 713 b 397 626 397 688 397 668 z "},"f":{"ha":472,"x_min":0,"x_max":0,"o":"m 156 1119 b 89 924 86 1081 89 956 l 89 0 l 293 0 l 293 692 l 435 692 l 435 843 l 296 843 b 310 988 296 900 293 971 b 472 978 340 1018 433 993 l 472 1118 b 156 1119 406 1143 210 1150 z "},"g":{"ha":678,"x_min":0,"x_max":0,"o":"m 539 -275 b 604 -112 604 -236 604 -157 l 604 626 b 546 828 604 708 607 792 b 154 828 478 868 222 864 b 89 618 81 788 89 693 l 89 156 b 142 1 89 72 90 40 b 392 -14 185 -31 343 -31 b 372 -129 392 -51 396 -110 b 92 -100 329 -167 189 -126 l 92 -257 b 539 -275 239 -308 464 -318 z m 315 703 b 364 704 325 710 354 711 b 392 563 396 688 392 631 l 392 276 b 365 128 392 181 396 147 b 317 128 360 124 325 122 b 292 274 288 146 292 190 l 292 557 b 315 703 292 657 288 686 z "},"h":{"ha":668,"x_min":0,"x_max":0,"o":"m 89 0 l 299 0 l 299 549 b 324 699 299 636 294 681 b 367 699 333 704 360 703 b 394 550 397 682 394 651 l 394 0 l 593 0 l 593 675 b 549 836 593 708 597 801 b 297 839 508 865 350 863 l 297 1151 l 89 1151 z "},"i":{"ha":358,"x_min":0,"x_max":0,"o":"m 89 0 l 283 0 l 283 843 l 89 843 z m 89 875 l 283 875 l 283 1058 l 89 1058 z "},"j":{"ha":596,"x_min":0,"x_max":0,"o":"m 317 875 l 522 875 l 522 1058 l 317 1058 z m 317 42 b 290 -79 317 -58 315 -68 b 236 -79 281 -82 244 -83 b 210 21 207 -64 210 -7 l 15 21 b 78 -215 17 -83 6 -175 b 461 -214 139 -250 407 -244 b 522 -19 529 -176 522 -125 l 522 843 l 317 843 z "},"k":{"ha":688,"x_min":0,"x_max":0,"o":"m 89 1151 l 89 0 l 288 0 l 288 342 l 404 0 l 619 0 l 425 521 l 554 843 l 386 843 l 281 590 l 281 1151 z "},"l":{"ha":365,"x_min":0,"x_max":0,"o":"m 89 1151 l 89 0 l 292 0 l 292 1151 z "},"m":{"ha":949,"x_min":0,"x_max":0,"o":"m 431 844 b 147 828 379 865 194 861 b 89 633 82 783 89 704 l 89 0 l 286 0 l 286 551 b 310 701 286 633 282 686 b 351 703 324 711 340 710 b 376 553 381 689 376 661 l 376 0 l 585 0 l 585 560 b 606 703 585 638 581 688 b 649 703 614 710 640 707 b 675 551 679 689 675 649 l 675 0 l 875 0 l 875 650 b 832 825 875 721 881 786 b 582 851 790 858 624 861 b 493 772 538 840 508 817 b 431 844 486 800 471 828 z "},"n":{"ha":667,"x_min":0,"x_max":0,"o":"m 592 649 b 533 829 592 753 589 796 b 150 836 469 867 193 861 b 89 631 82 796 89 757 l 89 0 l 290 0 l 290 549 b 311 692 290 631 288 674 b 361 693 321 699 353 697 b 392 540 397 675 392 638 l 392 0 l 592 0 z "},"o":{"ha":664,"x_min":0,"x_max":0,"o":"m 154 826 b 89 626 81 782 89 710 l 89 219 b 151 17 89 114 85 56 b 521 18 208 -17 467 -12 b 589 225 594 60 589 69 l 589 622 b 540 821 589 753 585 781 b 257 854 490 865 290 858 b 154 826 218 850 182 843 z m 364 696 b 390 553 394 681 390 617 l 390 297 b 364 154 390 203 394 169 b 313 156 353 149 322 150 b 290 296 286 172 290 235 l 290 547 b 300 682 290 622 289 668 b 364 696 317 703 350 703 z "},"p":{"ha":682,"x_min":0,"x_max":0,"o":"m 554 13 b 608 196 615 57 608 196 l 608 603 b 539 826 608 703 615 781 b 147 821 465 869 232 869 b 89 622 76 781 89 689 l 89 -314 l 294 -314 l 294 -8 b 554 13 358 -31 490 -33 z m 325 703 b 376 699 343 711 360 710 b 399 554 403 682 399 632 l 399 289 b 371 135 399 169 403 154 b 322 138 361 129 335 129 b 296 283 292 156 296 182 l 296 551 b 325 703 296 650 292 689 z "},"q":{"ha":681,"x_min":0,"x_max":0,"o":"m 607 622 b 546 829 607 738 615 793 b 168 828 478 864 239 868 b 89 613 82 781 89 713 l 89 196 b 144 7 89 82 86 50 b 396 -7 199 -33 324 -28 l 396 -314 l 607 -314 z m 318 707 b 372 704 331 713 353 711 b 396 564 400 693 396 646 l 396 276 b 363 132 396 171 399 154 b 311 132 350 125 331 119 b 289 281 283 151 289 178 l 289 557 b 318 707 289 660 283 690 z "},"r":{"ha":532,"x_min":0,"x_max":0,"o":"m 161 833 b 89 632 83 792 89 718 l 89 0 l 282 0 l 282 564 b 310 701 282 603 278 679 b 458 692 350 731 421 699 l 458 828 b 161 833 357 864 229 869 z "},"s":{"ha":654,"x_min":0,"x_max":0,"o":"m 533 835 b 154 842 479 867 194 861 b 96 713 101 817 99 753 b 143 378 92 657 78 424 b 363 344 192 343 342 354 b 392 261 393 329 392 294 b 364 149 392 215 396 165 b 310 147 353 143 319 142 b 281 292 278 164 281 217 l 89 292 b 113 47 89 128 86 78 b 364 -6 160 -11 321 -7 b 567 56 411 -4 528 -7 b 576 449 603 113 597 393 b 499 511 561 490 538 503 b 299 539 383 535 328 508 b 289 664 282 556 286 649 b 321 713 293 692 304 704 b 371 707 338 718 356 715 b 393 597 397 688 393 617 l 581 597 b 533 835 581 763 586 803 z "},"t":{"ha":442,"x_min":0,"x_max":0,"o":"m 89 208 b 146 24 89 164 83 64 b 454 36 231 -32 372 -1 l 454 176 b 313 163 415 165 333 147 b 288 311 282 185 288 207 l 288 694 l 442 694 l 442 843 l 283 843 l 283 992 l 89 992 z "},"u":{"ha":661,"x_min":0,"x_max":0,"o":"m 89 843 l 89 224 b 150 17 89 153 81 57 b 532 18 206 -17 475 -15 b 588 224 594 54 588 114 l 588 843 l 390 843 l 390 310 b 363 163 390 213 393 176 b 313 164 351 156 322 156 b 289 311 283 183 289 215 l 289 843 z "},"v":{"ha":633,"x_min":0,"x_max":0,"o":"m 192 0 l 408 0 l 613 843 l 435 843 l 321 304 l 243 843 l 39 843 z "},"w":{"ha":815,"x_min":0,"x_max":0,"o":"m 151 0 l 392 0 l 418 344 l 450 0 l 681 0 l 796 843 l 622 843 l 581 371 l 539 843 l 332 843 l 293 375 l 240 843 l 40 843 z "},"x":{"ha":676,"x_min":0,"x_max":0,"o":"m 25 843 l 215 446 l 26 0 l 218 0 l 324 249 l 440 0 l 660 0 l 446 446 l 633 843 l 443 843 l 350 640 l 246 843 z "},"y":{"ha":668,"x_min":0,"x_max":0,"o":"m 89 814 l 89 189 b 125 25 89 106 88 54 b 382 14 172 -12 329 0 b 361 -107 383 -37 388 -83 b 99 -83 317 -146 140 -99 l 99 -235 b 535 -250 224 -283 450 -307 b 593 -61 606 -204 593 -106 l 593 843 l 385 843 l 385 308 b 360 161 385 222 388 179 b 314 160 342 150 324 153 b 290 311 286 174 290 207 l 290 843 l 89 843 z "},"z":{"ha":618,"x_min":0,"x_max":0,"o":"m 89 843 l 89 704 l 325 704 l 81 139 l 81 0 l 571 0 l 571 153 l 304 153 l 544 704 l 544 843 z "},"~":{"ha":508,"x_min":0,"x_max":0,"o":"m 222 1215 b 82 1113 154 1221 125 1185 b 299 1097 168 1165 213 1100 b 442 1200 372 1094 403 1118 b 222 1215 339 1133 324 1207 z "},"¡":{"ha":476,"x_min":0,"x_max":0,"o":"m 188 1099 l 188 496 l 307 496 l 307 1099 z "},"¢":{"ha":668,"x_min":0,"x_max":0,"o":"m 299 1001 b 150 976 235 1001 178 992 b 89 806 82 942 89 846 l 89 358 b 297 131 89 182 118 140 l 297 -108 l 383 -108 l 383 129 b 543 164 456 129 518 150 b 596 372 604 196 596 265 l 596 486 l 393 486 l 393 458 b 369 297 393 379 397 314 b 318 297 354 288 335 289 b 290 442 286 315 290 358 l 290 699 b 315 842 290 776 286 821 b 365 846 328 850 357 850 b 393 689 397 832 393 760 l 393 635 l 593 635 l 593 786 b 382 1001 593 981 575 989 l 382 1194 l 299 1194 z "},"¤":{"ha":476,"x_min":0,"x_max":0,"o":"m 338 751 b 388 908 390 832 388 828 l 388 969 b 350 1088 388 1015 390 1064 b 126 1088 301 1115 171 1114 b 89 961 85 1063 89 1018 l 89 867 l 206 867 l 206 904 b 215 990 206 949 203 981 b 249 997 225 997 238 1001 b 271 976 260 994 265 988 b 267 879 272 974 272 900 b 213 781 257 844 239 818 l 126 658 b 92 496 85 599 93 592 l 390 496 l 390 606 l 240 606 z "},"¥":{"ha":668,"x_min":0,"x_max":0,"o":"m 89 196 b 150 8 89 101 81 43 b 400 46 213 -22 338 -8 l 400 -261 l 593 -261 l 593 836 l 379 836 l 379 310 b 356 163 379 235 382 182 b 313 160 339 150 324 151 b 288 308 282 175 288 235 l 288 836 l 89 836 z "},"¨":{"ha":458,"x_min":0,"x_max":0,"o":"m 82 1153 b 122 1100 86 1128 104 1110 b 176 1107 140 1093 160 1096 b 207 1160 199 1121 207 1142 b 178 1214 208 1183 196 1201 b 124 1221 160 1226 140 1228 b 82 1153 92 1208 78 1178 z m 265 1150 b 307 1100 271 1124 290 1108 b 361 1110 329 1093 349 1099 b 392 1164 385 1125 392 1149 b 357 1218 390 1186 375 1206 b 303 1221 336 1229 317 1228 b 265 1150 272 1206 258 1176 z "},"©":{"ha":735,"x_min":0,"x_max":0,"o":"m 660 828 b 589 1085 660 985 667 1043 b 154 1082 506 1129 235 1132 b 89 886 79 1036 89 938 l 89 225 b 164 21 89 114 81 69 b 593 25 238 -22 510 -21 b 661 249 671 68 661 154 l 661 582 l 350 582 l 350 390 l 440 390 l 440 343 b 411 182 440 238 443 201 b 340 181 388 168 360 171 b 310 321 304 197 310 239 l 310 786 b 333 924 310 861 307 904 b 407 926 353 938 392 935 b 439 767 443 907 439 868 l 439 686 l 660 686 z "},"ª":{"ha":476,"x_min":0,"x_max":0,"o":"m 93 649 b 128 518 93 593 88 543 b 365 518 174 490 319 492 b 401 614 404 539 401 590 l 401 993 b 365 1099 401 1033 406 1075 b 128 1099 317 1126 172 1125 b 90 982 86 1075 90 1018 l 90 808 b 118 736 90 788 92 756 b 282 729 153 711 246 718 l 282 689 l 282 644 b 268 604 282 618 281 611 b 228 601 260 599 235 597 b 211 644 211 610 211 625 l 211 665 l 211 686 l 93 686 z m 225 1014 b 267 1015 233 1019 251 1022 b 283 933 286 1007 283 971 l 283 910 b 267 826 283 867 288 836 b 226 826 256 821 236 819 b 211 907 210 838 211 850 l 211 931 b 225 1014 211 989 210 1003 z "},"®":{"ha":736,"x_min":0,"x_max":0,"o":"m 89 0 l 314 0 l 314 446 l 351 446 l 476 0 l 693 0 l 571 463 b 661 660 657 500 661 538 l 661 838 b 619 1058 661 969 664 1014 b 422 1096 576 1101 446 1096 l 89 1096 z m 315 918 b 431 886 351 918 408 919 b 436 672 447 863 446 693 b 372 632 425 647 406 632 l 315 632 z "},"¯":{"ha":464,"x_min":0,"x_max":0,"o":"m 89 1183 l 89 1100 l 390 1100 l 390 1183 z "},"°":{"ha":476,"x_min":0,"x_max":0,"o":"m 403 926 l 403 972 b 365 1094 403 1026 407 1071 b 128 1094 317 1122 176 1122 b 89 972 85 1071 89 1019 l 89 931 b 129 832 89 892 82 857 b 88 757 83 811 88 788 l 88 635 b 126 513 88 610 83 539 b 372 514 175 482 321 485 b 407 635 413 536 407 606 l 407 767 b 363 835 407 808 400 817 b 403 926 408 857 403 882 z m 225 1008 b 264 1013 231 1013 256 1014 b 282 983 274 1008 282 1003 l 282 903 b 233 868 282 871 253 863 b 211 890 224 871 213 881 l 211 950 b 225 1008 211 978 210 997 z m 229 778 b 269 778 236 782 260 782 b 286 738 282 771 286 758 l 286 671 b 274 603 286 628 288 614 b 229 597 265 593 243 593 b 210 632 218 603 210 611 l 210 703 b 229 778 210 744 207 765 z "},"´":{"ha":407,"x_min":0,"x_max":0,"o":"m 178 1125 b 335 1199 207 1133 318 1160 b 333 1247 343 1218 342 1235 b 286 1281 322 1268 303 1279 b 138 1158 244 1285 171 1196 l 82 1097 z "},"µ":{"ha":963,"x_min":0,"x_max":0,"o":"m 476 839 b 254 790 417 850 289 844 l 254 838 l 89 838 l 89 0 l 290 0 l 290 519 b 315 674 290 594 286 656 b 358 675 328 681 350 681 b 383 526 388 658 383 622 l 383 0 l 588 0 l 588 529 b 613 681 588 626 585 661 b 654 681 622 688 647 686 b 678 531 682 665 678 626 l 678 0 l 888 0 l 888 638 b 814 824 888 740 897 794 b 551 783 743 849 601 850 b 476 839 532 813 513 832 z "},"·":{"ha":404,"x_min":0,"x_max":0,"o":"m 225 54 b 156 42 176 50 168 44 b 83 -18 119 33 92 14 b 101 -81 78 -39 86 -64 b 246 -119 132 -114 214 -125 b 332 -65 283 -114 315 -99 b 331 -26 340 -49 338 -37 b 299 -8 321 -14 310 -8 b 269 -28 283 -10 274 -18 b 286 -82 256 -51 271 -69 b 249 -96 274 -93 254 -96 b 211 -82 233 -96 218 -86 b 190 -43 196 -75 188 -60 b 244 6 194 -22 215 -4 l 244 96 l 225 96 z "},"º":{"ha":476,"x_min":0,"x_max":0,"o":"m 125 1094 b 96 990 89 1071 96 1010 l 96 632 b 133 513 96 583 89 538 b 365 518 181 488 319 492 b 401 644 404 539 401 590 l 401 989 b 376 1090 401 1010 401 1068 b 194 1114 340 1122 210 1115 b 125 1094 172 1111 143 1107 z m 225 1010 b 267 1013 233 1017 253 1018 b 283 972 279 1006 283 994 l 283 931 l 283 689 b 267 603 283 647 288 610 b 228 603 256 599 239 594 b 213 686 211 614 213 646 l 213 929 b 225 1010 213 969 211 999 z "},"¿":{"ha":647,"x_min":0,"x_max":0,"o":"m 265 501 l 290 501 l 392 1143 l 365 1143 z m 356 774 l 356 640 b 381 539 356 594 353 557 b 543 539 403 525 521 526 b 572 636 576 556 572 599 l 572 772 b 551 867 572 815 574 843 b 406 879 531 889 425 883 b 356 774 353 863 356 821 z m 451 815 b 481 815 458 819 478 818 b 492 738 492 801 492 781 l 492 674 l 492 633 b 478 593 492 615 490 601 b 449 594 471 592 456 589 b 438 671 436 604 438 625 l 438 736 b 451 815 438 775 436 804 z m 89 1047 l 89 914 b 114 813 89 869 85 831 b 275 813 135 800 254 800 b 304 911 311 832 304 872 l 304 1046 b 286 1140 304 1089 307 1118 b 140 1153 264 1164 157 1158 b 89 1047 85 1136 89 1094 z m 185 1089 b 213 1089 190 1093 210 1092 b 225 1011 225 1076 225 1054 l 225 947 l 225 907 b 210 867 225 889 224 875 b 182 869 206 865 189 864 b 171 944 168 879 171 899 l 171 1010 b 185 1089 171 1050 168 1078 z "},"À":{"ha":696,"x_min":0,"x_max":0,"o":"m 440 1260 b 278 1368 410 1289 313 1374 b 235 1333 258 1365 244 1353 b 232 1286 225 1318 226 1299 b 396 1225 253 1246 367 1231 l 496 1208 z m 40 0 l 260 0 l 292 261 l 418 261 l 443 0 l 676 0 l 511 1099 l 207 1099 z m 351 804 l 360 947 l 365 804 l 400 451 l 313 451 z "},"Á":{"ha":696,"x_min":0,"x_max":0,"o":"m 331 1238 b 486 1310 358 1246 468 1271 b 485 1360 494 1329 493 1346 b 438 1392 475 1381 456 1390 b 289 1269 396 1396 322 1307 l 233 1208 z m 40 0 l 260 0 l 292 261 l 418 261 l 443 0 l 676 0 l 511 1099 l 207 1099 z m 351 804 l 360 947 l 365 804 l 400 451 l 313 451 z "},"Â":{"ha":696,"x_min":0,"x_max":0,"o":"m 165 1207 l 240 1225 b 357 1254 261 1231 346 1254 b 417 1239 360 1254 417 1239 b 475 1225 436 1233 463 1228 l 550 1207 l 349 1344 z m 36 0 l 256 0 l 288 261 l 414 261 l 439 0 l 672 0 l 507 1099 l 203 1099 z m 346 804 l 356 947 l 361 804 l 396 451 l 308 451 z "},"Ã":{"ha":696,"x_min":0,"x_max":0,"o":"m 328 1326 b 188 1224 260 1332 231 1297 b 404 1208 274 1278 318 1213 b 547 1311 478 1206 508 1229 b 328 1326 444 1244 429 1319 z m 44 0 l 265 0 l 296 261 l 422 261 l 447 0 l 681 0 l 517 1099 l 211 1099 z m 356 804 l 364 947 l 371 804 l 404 451 l 317 451 z "},"Ä":{"ha":696,"x_min":0,"x_max":0,"o":"m 207 1264 b 247 1213 211 1239 229 1221 b 301 1218 265 1204 283 1207 b 332 1271 324 1233 332 1254 b 303 1325 333 1296 321 1313 b 249 1332 283 1339 265 1340 b 207 1264 217 1321 203 1289 z m 390 1261 b 431 1213 396 1236 415 1219 b 486 1221 454 1204 472 1211 b 517 1276 510 1238 517 1260 b 482 1329 514 1299 500 1318 b 428 1332 461 1342 442 1340 b 390 1261 397 1318 383 1288 z m 39 0 l 258 0 l 290 261 l 417 261 l 442 0 l 675 0 l 510 1099 l 206 1099 z m 350 804 l 358 947 l 364 804 l 399 451 l 311 451 z "},"Å":{"ha":696,"x_min":0,"x_max":0,"o":"m 292 1272 b 333 1214 294 1246 314 1224 b 397 1218 354 1203 378 1206 b 435 1279 422 1233 435 1257 b 404 1342 436 1307 421 1328 b 340 1350 385 1356 361 1357 b 292 1272 304 1338 288 1306 z m 338 1313 b 372 1321 343 1318 356 1325 b 400 1292 382 1318 396 1307 b 394 1256 404 1279 403 1265 b 358 1240 388 1247 374 1239 b 325 1263 346 1242 333 1250 b 338 1313 318 1279 318 1297 z m 40 0 l 260 0 l 292 261 l 418 261 l 443 0 l 676 0 l 511 1099 l 207 1099 z m 351 804 l 360 947 l 365 804 l 400 451 l 313 451 z "},"Ç":{"ha":669,"x_min":0,"x_max":0,"o":"m 294 1010 b 149 982 224 1010 171 993 b 89 779 82 946 89 868 l 89 732 b 139 526 89 633 82 565 b 364 497 194 489 336 504 b 394 406 399 488 394 442 b 365 300 394 356 399 319 b 313 300 353 292 325 292 b 283 371 286 315 283 340 l 283 444 l 89 444 l 89 383 b 118 190 89 269 92 221 b 297 146 157 149 260 144 l 297 -97 l 385 -97 l 385 146 b 513 167 426 143 496 160 b 589 265 564 188 581 214 b 554 643 597 318 617 590 b 319 678 506 685 365 657 b 290 740 288 693 290 722 b 314 850 290 781 288 835 b 364 854 324 857 353 860 b 394 739 401 835 399 782 l 582 739 b 556 958 583 783 590 913 b 378 1010 524 999 433 1013 l 378 1200 l 294 1200 z "},"È":{"ha":653,"x_min":0,"x_max":0,"o":"m 418 1257 b 256 1365 386 1285 290 1371 b 213 1331 238 1363 222 1349 b 210 1283 203 1314 204 1296 b 374 1222 231 1243 344 1226 l 475 1206 z m 89 0 l 596 0 l 596 196 l 304 196 l 304 458 l 304 478 l 550 478 l 550 506 l 550 679 l 513 679 l 304 679 l 304 914 l 578 914 l 578 1096 l 89 1096 z "},"É":{"ha":653,"x_min":0,"x_max":0,"o":"m 308 1235 b 465 1307 336 1243 447 1268 b 463 1356 472 1326 471 1343 b 415 1389 451 1376 433 1388 b 267 1267 374 1393 300 1304 l 211 1206 z m 89 0 l 596 0 l 596 196 l 304 196 l 304 458 l 304 478 l 550 478 l 550 506 l 550 679 l 513 679 l 304 679 l 304 914 l 578 914 l 578 1096 l 89 1096 z "},"Ê":{"ha":653,"x_min":0,"x_max":0,"o":"m 308 1235 b 465 1307 336 1243 447 1268 b 463 1356 472 1326 471 1343 b 415 1389 451 1376 433 1388 b 267 1267 374 1393 300 1304 l 211 1206 z m 89 0 l 596 0 l 596 196 l 304 196 l 304 458 l 304 478 l 550 478 l 550 506 l 550 679 l 513 679 l 304 679 l 304 914 l 578 914 l 578 1096 l 89 1096 z "},"Ë":{"ha":653,"x_min":0,"x_max":0,"o":"m 147 1204 l 224 1222 b 339 1250 244 1228 329 1250 b 399 1236 342 1250 399 1236 b 457 1222 418 1229 444 1225 l 532 1204 l 331 1342 z m 89 0 l 596 0 l 596 196 l 304 196 l 304 458 l 304 478 l 550 478 l 550 506 l 550 679 l 513 679 l 304 679 l 304 914 l 578 914 l 578 1096 l 89 1096 z "},"Ì":{"ha":374,"x_min":0,"x_max":0,"o":"m 271 1263 b 108 1371 240 1292 143 1376 b 65 1338 90 1368 75 1354 b 63 1289 56 1321 57 1301 b 226 1228 83 1249 197 1232 l 325 1213 z m 89 1100 l 89 0 l 299 0 l 299 1100 z "},"Í":{"ha":374,"x_min":0,"x_max":0,"o":"m 161 1240 b 317 1313 189 1249 300 1275 b 315 1363 325 1332 324 1349 b 268 1394 304 1383 286 1393 b 119 1272 226 1399 154 1308 l 64 1213 z m 89 1100 l 89 0 l 299 0 l 299 1100 z "},"Î":{"ha":374,"x_min":0,"x_max":0,"o":"m 0 1211 l 76 1228 b 192 1257 97 1232 182 1257 b 251 1242 194 1257 251 1242 b 310 1228 271 1236 297 1232 l 385 1211 l 183 1347 z m 89 1100 l 89 0 l 299 0 l 299 1100 z "},"Ï":{"ha":374,"x_min":0,"x_max":0,"o":"m 39 1267 b 79 1215 43 1242 61 1224 b 133 1221 97 1207 117 1210 b 164 1275 156 1235 164 1257 b 135 1328 165 1299 153 1317 b 81 1335 117 1342 97 1343 b 39 1267 49 1324 35 1292 z m 222 1264 b 264 1215 228 1239 247 1222 b 319 1224 286 1207 304 1213 b 349 1279 342 1240 349 1263 b 314 1332 346 1301 332 1321 b 260 1335 293 1344 274 1343 b 222 1264 229 1321 215 1290 z m 89 1100 l 89 0 l 299 0 l 299 1100 z "},"Ñ":{"ha":732,"x_min":0,"x_max":0,"o":"m 332 1331 b 193 1228 267 1336 236 1301 b 411 1214 279 1282 324 1217 b 553 1317 483 1211 514 1235 b 332 1331 450 1249 436 1322 z m 657 0 l 657 1097 l 457 1097 b 465 585 443 931 465 585 l 471 450 l 444 617 l 328 1097 l 89 1097 l 89 0 l 290 0 b 281 513 303 167 281 513 l 275 647 l 301 481 l 417 0 z "},"Ò":{"ha":731,"x_min":0,"x_max":0,"o":"m 450 1282 b 289 1390 419 1310 322 1396 b 246 1356 271 1388 254 1375 b 243 1308 235 1340 236 1321 b 406 1247 264 1268 378 1254 l 507 1232 z m 153 1078 b 89 876 82 1033 89 981 l 89 249 b 161 22 89 171 86 65 b 588 28 235 -21 503 -17 b 656 231 665 68 656 149 l 656 888 b 606 1071 656 914 658 1025 b 278 1114 544 1122 336 1119 b 153 1078 240 1110 186 1099 z m 331 924 b 406 926 346 933 383 939 b 438 779 443 907 438 854 l 438 342 b 403 188 438 235 443 204 b 336 189 383 181 357 175 b 308 336 303 210 308 261 l 308 774 b 331 924 308 865 303 906 z "},"Ó":{"ha":731,"x_min":0,"x_max":0,"o":"m 340 1260 b 499 1332 369 1268 481 1293 b 496 1382 506 1351 504 1368 b 447 1414 485 1403 465 1413 b 299 1292 406 1418 333 1329 l 244 1232 z m 153 1078 b 89 876 82 1033 89 981 l 89 249 b 161 22 89 171 86 65 b 588 28 235 -21 503 -17 b 656 231 665 68 656 149 l 656 888 b 606 1071 656 914 658 1025 b 278 1114 544 1122 336 1119 b 153 1078 240 1110 186 1099 z m 331 924 b 406 926 346 933 383 939 b 438 779 443 907 438 854 l 438 342 b 403 188 438 235 443 204 b 336 189 383 181 357 175 b 308 336 303 210 308 261 l 308 774 b 331 924 308 865 303 906 z "},"Ô":{"ha":731,"x_min":0,"x_max":0,"o":"m 181 1229 l 256 1247 b 372 1276 276 1253 361 1276 b 431 1261 375 1276 431 1261 b 489 1247 450 1256 478 1250 l 565 1229 l 363 1367 z m 153 1078 b 89 876 82 1033 89 981 l 89 249 b 161 22 89 171 86 65 b 588 28 235 -21 503 -17 b 656 231 665 68 656 149 l 656 888 b 606 1071 656 914 658 1025 b 278 1114 544 1122 336 1119 b 153 1078 240 1110 186 1099 z m 331 924 b 406 926 346 933 383 939 b 438 779 443 907 438 854 l 438 342 b 403 188 438 235 443 204 b 336 189 383 181 357 175 b 308 336 303 210 308 261 l 308 774 b 331 924 308 865 303 906 z "},"Õ":{"ha":731,"x_min":0,"x_max":0,"o":"m 333 1349 b 193 1246 267 1354 236 1319 b 411 1232 279 1300 324 1236 b 553 1333 483 1229 514 1251 b 333 1349 450 1267 436 1342 z m 153 1078 b 89 876 82 1033 89 981 l 89 249 b 161 22 89 171 86 65 b 588 28 235 -21 503 -17 b 656 231 665 68 656 149 l 656 888 b 606 1071 656 914 658 1025 b 278 1114 544 1122 336 1119 b 153 1078 240 1110 186 1099 z m 331 924 b 406 926 346 933 383 939 b 438 779 443 907 438 854 l 438 342 b 403 188 438 235 443 204 b 336 189 383 181 357 175 b 308 336 303 210 308 261 l 308 774 b 331 924 308 865 303 906 z "},"Ö":{"ha":731,"x_min":0,"x_max":0,"o":"m 218 1286 b 258 1235 224 1261 240 1243 b 314 1240 276 1226 296 1229 b 343 1293 336 1256 343 1276 b 315 1347 344 1318 333 1335 b 260 1354 296 1363 276 1363 b 218 1286 229 1343 214 1311 z m 401 1283 b 443 1235 407 1258 426 1242 b 499 1243 465 1226 485 1233 b 528 1299 522 1260 528 1282 b 493 1351 526 1321 511 1340 b 440 1354 472 1364 454 1363 b 401 1283 408 1340 396 1310 z m 153 1078 b 89 876 82 1033 89 981 l 89 249 b 161 22 89 171 86 65 b 588 28 235 -21 503 -17 b 656 231 665 68 656 149 l 656 888 b 606 1071 656 914 658 1025 b 278 1114 544 1122 336 1119 b 153 1078 240 1110 186 1099 z m 331 924 b 406 926 346 933 383 939 b 438 779 443 907 438 854 l 438 342 b 403 188 438 235 443 204 b 336 189 383 181 357 175 b 308 336 303 210 308 261 l 308 774 b 331 924 308 865 303 906 z "},"Ù":{"ha":732,"x_min":0,"x_max":0,"o":"m 450 1256 b 289 1364 419 1283 322 1369 b 246 1329 269 1361 254 1349 b 243 1282 235 1313 238 1293 b 406 1221 265 1242 378 1225 l 506 1204 z m 89 1096 l 89 257 b 163 21 89 154 83 67 b 589 21 243 -26 521 -19 b 657 244 667 67 657 196 l 657 1096 l 439 1096 l 439 338 b 406 182 439 239 443 203 b 336 181 385 169 353 172 b 307 329 303 199 307 258 l 307 1096 z "},"Ú":{"ha":732,"x_min":0,"x_max":0,"o":"m 340 1233 b 497 1306 369 1242 481 1267 b 496 1354 506 1325 504 1342 b 447 1388 485 1375 465 1386 b 299 1265 406 1392 332 1304 l 244 1204 z m 89 1096 l 89 257 b 163 21 89 154 83 67 b 589 21 243 -26 521 -19 b 657 244 667 67 657 196 l 657 1096 l 439 1096 l 439 338 b 406 182 439 239 443 203 b 336 181 385 169 353 172 b 307 329 303 199 307 258 l 307 1096 z "},"Û":{"ha":732,"x_min":0,"x_max":0,"o":"m 181 1203 l 256 1221 b 372 1249 276 1226 361 1249 b 431 1235 375 1249 431 1235 b 489 1221 450 1228 478 1224 l 565 1203 l 363 1340 z m 89 1096 l 89 257 b 163 21 89 154 83 67 b 589 21 243 -26 521 -19 b 657 244 667 67 657 196 l 657 1096 l 439 1096 l 439 338 b 406 182 439 239 443 203 b 336 181 385 169 353 172 b 307 329 303 199 307 258 l 307 1096 z "},"Ü":{"ha":732,"x_min":0,"x_max":0,"o":"m 218 1260 b 258 1207 224 1235 240 1217 b 314 1214 276 1200 296 1203 b 343 1267 336 1228 343 1249 b 315 1321 344 1290 333 1308 b 260 1328 296 1333 276 1335 b 218 1260 229 1317 214 1285 z m 401 1257 b 443 1207 407 1232 426 1215 b 500 1217 465 1200 485 1206 b 528 1271 522 1233 528 1256 b 493 1325 526 1293 511 1313 b 440 1328 472 1338 454 1335 b 401 1257 408 1313 396 1283 z m 89 1096 l 89 257 b 163 21 89 154 83 67 b 589 21 243 -26 521 -19 b 657 244 667 67 657 196 l 657 1096 l 439 1096 l 439 338 b 406 182 439 239 443 203 b 336 181 385 169 353 172 b 307 329 303 199 307 258 l 307 1096 z "},"ß":{"ha":472,"x_min":0,"x_max":0,"o":"m 226 1114 b 121 1090 182 1113 146 1111 b 89 986 90 1064 89 999 l 89 893 b 226 771 89 774 126 779 l 226 607 b 208 647 213 607 208 624 l 208 693 l 208 738 l 89 738 l 89 710 l 89 639 b 228 500 89 519 119 506 l 228 468 l 264 468 l 264 499 b 365 522 288 501 339 504 b 399 628 401 546 399 593 l 399 749 b 376 844 399 775 400 819 b 260 879 343 879 281 879 l 260 1008 b 279 940 281 1008 278 992 l 279 914 l 399 914 l 399 969 b 379 1078 399 1024 401 1057 b 261 1113 353 1103 288 1113 l 261 1153 l 226 1153 z m 226 1007 l 226 885 b 207 944 208 885 207 918 b 226 1007 207 988 210 1006 z m 261 760 b 279 724 275 760 279 751 l 279 649 b 261 608 279 622 278 610 z "},"à":{"ha":658,"x_min":0,"x_max":0,"o":"m 411 1001 b 249 1110 381 1031 282 1115 b 206 1075 231 1107 214 1093 b 203 1028 194 1058 196 1040 b 365 967 224 988 338 971 l 467 950 z m 149 532 b 79 331 71 494 79 382 l 79 222 b 139 14 79 171 74 51 b 526 17 196 -18 478 -8 b 585 208 592 50 585 154 l 585 628 b 517 832 585 694 589 794 b 147 828 450 867 208 867 b 89 601 83 788 89 671 l 279 601 b 311 694 279 647 279 675 b 358 696 329 704 349 701 b 385 547 394 676 386 607 b 149 532 343 553 215 564 z m 328 396 b 375 381 343 400 363 394 b 383 190 388 365 386 210 b 344 143 381 167 381 151 b 297 150 329 139 310 140 b 281 332 272 172 278 303 b 328 396 283 363 293 390 z "},"á":{"ha":658,"x_min":0,"x_max":0,"o":"m 300 978 b 458 1051 329 986 440 1013 b 456 1100 465 1071 464 1088 b 407 1133 444 1121 425 1132 b 258 1011 365 1138 292 1050 l 204 950 z m 149 532 b 79 331 71 494 79 382 l 79 222 b 139 14 79 171 74 51 b 526 17 196 -18 478 -8 b 585 208 592 50 585 154 l 585 628 b 517 832 585 694 589 794 b 147 828 450 867 208 867 b 89 601 83 788 89 671 l 279 601 b 311 694 279 647 279 675 b 358 696 329 704 349 701 b 385 547 394 676 386 607 b 149 532 343 553 215 564 z m 328 396 b 375 381 343 400 363 394 b 383 190 388 365 386 210 b 344 143 381 167 381 151 b 297 150 329 139 310 140 b 281 332 272 172 278 303 b 328 396 283 363 293 390 z "},"â":{"ha":658,"x_min":0,"x_max":0,"o":"m 140 949 l 215 967 b 332 994 236 972 321 994 b 392 981 335 994 392 981 b 449 967 411 974 438 969 l 525 949 l 322 1086 z m 149 532 b 79 331 71 494 79 382 l 79 222 b 139 14 79 171 74 51 b 526 17 196 -18 478 -8 b 585 208 592 50 585 154 l 585 628 b 517 832 585 694 589 794 b 147 828 450 867 208 867 b 89 601 83 788 89 671 l 279 601 b 311 694 279 647 279 675 b 358 696 329 704 349 701 b 385 547 394 676 386 607 b 149 532 343 553 215 564 z m 328 396 b 375 381 343 400 363 394 b 383 190 388 365 386 210 b 344 143 381 167 381 151 b 297 150 329 139 310 140 b 281 332 272 172 278 303 b 328 396 283 363 293 390 z "},"ã":{"ha":658,"x_min":0,"x_max":0,"o":"m 292 1068 b 153 965 226 1074 196 1038 b 371 950 239 1018 283 953 b 513 1053 443 947 475 971 b 292 1068 411 986 396 1060 z m 149 532 b 79 331 71 494 79 382 l 79 222 b 139 14 79 171 74 51 b 526 17 196 -18 478 -8 b 585 208 592 50 585 154 l 585 628 b 517 832 585 694 589 794 b 147 828 450 867 208 867 b 89 601 83 788 89 671 l 279 601 b 311 694 279 647 279 675 b 358 696 329 704 349 701 b 385 547 394 676 386 607 b 149 532 343 553 215 564 z m 328 396 b 375 381 343 400 363 394 b 383 190 388 365 386 210 b 344 143 381 167 381 151 b 297 150 329 139 310 140 b 281 332 272 172 278 303 b 328 396 283 363 293 390 z "},"ä":{"ha":658,"x_min":0,"x_max":0,"o":"m 178 1006 b 218 953 183 981 201 963 b 274 960 236 946 256 949 b 303 1013 296 974 303 994 b 275 1067 304 1036 293 1054 b 219 1074 256 1079 236 1081 b 178 1006 189 1061 174 1031 z m 361 1003 b 403 953 367 976 386 961 b 460 963 425 946 444 951 b 488 1017 482 978 488 1001 b 454 1071 486 1039 471 1058 b 400 1074 433 1082 414 1081 b 361 1003 369 1058 356 1029 z m 149 532 b 79 331 71 494 79 382 l 79 222 b 139 14 79 171 74 51 b 526 17 196 -18 478 -8 b 585 208 592 50 585 154 l 585 628 b 517 832 585 694 589 794 b 147 828 450 867 208 867 b 89 601 83 788 89 671 l 279 601 b 311 694 279 647 279 675 b 358 696 329 704 349 701 b 385 547 394 676 386 607 b 149 532 343 553 215 564 z m 328 396 b 375 381 343 400 363 394 b 383 190 388 365 386 210 b 344 143 381 167 381 151 b 297 150 329 139 310 140 b 281 332 272 172 278 303 b 328 396 283 363 293 390 z "},"å":{"ha":658,"x_min":0,"x_max":0,"o":"m 261 1014 b 303 954 265 988 283 964 b 367 960 324 943 349 947 b 404 1019 393 974 404 997 b 375 1082 406 1049 392 1069 b 313 1092 356 1097 332 1099 b 261 1014 275 1079 257 1047 z m 308 1054 b 342 1061 314 1058 325 1067 b 371 1033 353 1058 365 1049 b 364 996 375 1019 374 1007 b 329 982 358 989 343 981 b 296 1006 317 983 303 992 b 308 1054 289 1019 289 1038 z m 149 532 b 79 331 71 494 79 382 l 79 222 b 139 14 79 171 74 51 b 526 17 196 -18 478 -8 b 585 208 592 50 585 154 l 585 628 b 517 832 585 694 589 794 b 147 828 450 867 208 867 b 89 601 83 788 89 671 l 279 601 b 311 694 279 647 279 675 b 358 696 329 704 349 701 b 385 547 394 676 386 607 b 149 532 343 553 215 564 z m 328 396 b 375 381 343 400 363 394 b 383 190 388 365 386 210 b 344 143 381 167 381 151 b 297 150 329 139 310 140 b 281 332 272 172 278 303 b 328 396 283 363 293 390 z "},"ç":{"ha":456,"x_min":0,"x_max":0,"o":"m 210 1057 b 124 1044 174 1057 142 1051 b 89 944 85 1024 89 968 l 89 694 b 210 564 89 592 106 568 l 210 424 l 260 424 l 260 563 b 353 582 300 563 338 574 b 382 703 386 601 382 640 l 382 760 l 265 760 l 265 753 b 251 660 265 708 268 671 b 222 660 243 654 231 654 b 206 743 203 671 206 694 l 206 882 b 219 965 206 926 203 953 b 250 968 228 969 244 969 b 265 881 268 960 265 922 l 265 849 l 381 849 l 381 932 b 258 1057 381 1046 371 1050 l 258 1169 l 210 1169 z "},"è":{"ha":667,"x_min":0,"x_max":0,"o":"m 419 1001 b 257 1110 388 1029 292 1115 b 214 1075 239 1107 224 1093 b 211 1028 204 1058 206 1040 b 375 967 232 988 346 971 l 476 950 z m 592 633 b 544 829 592 719 599 796 b 151 836 482 868 206 864 b 89 653 85 803 89 722 l 89 203 b 156 19 89 163 85 60 b 535 15 215 -15 478 -15 b 592 218 596 49 592 61 l 592 256 l 592 290 l 388 290 l 388 244 b 363 149 388 199 393 160 b 315 149 343 142 328 140 b 297 303 294 164 297 197 l 297 365 l 592 365 z m 397 521 l 293 521 l 293 624 b 322 704 293 653 290 688 b 374 701 335 711 354 713 b 397 626 397 688 397 668 z "},"é":{"ha":667,"x_min":0,"x_max":0,"o":"m 310 978 b 467 1051 338 986 449 1013 b 464 1100 475 1071 472 1088 b 417 1133 454 1121 435 1132 b 268 1011 375 1138 301 1049 l 213 950 z m 592 633 b 544 829 592 719 599 796 b 151 836 482 868 206 864 b 89 653 85 803 89 722 l 89 203 b 156 19 89 163 85 60 b 535 15 215 -15 478 -15 b 592 218 596 49 592 61 l 592 256 l 592 290 l 388 290 l 388 244 b 363 149 388 199 393 160 b 315 149 343 142 328 140 b 297 303 294 164 297 197 l 297 365 l 592 365 z m 397 521 l 293 521 l 293 624 b 322 704 293 653 290 688 b 374 701 335 711 354 713 b 397 626 397 688 397 668 z "},"ê":{"ha":667,"x_min":0,"x_max":0,"o":"m 149 949 l 225 967 b 340 994 246 972 331 994 b 400 981 343 994 400 981 b 458 967 419 974 446 969 l 533 949 l 332 1086 z m 592 633 b 544 829 592 719 599 796 b 151 836 482 868 206 864 b 89 653 85 803 89 722 l 89 203 b 156 19 89 163 85 60 b 535 15 215 -15 478 -15 b 592 218 596 49 592 61 l 592 256 l 592 290 l 388 290 l 388 244 b 363 149 388 199 393 160 b 315 149 343 142 328 140 b 297 303 294 164 297 197 l 297 365 l 592 365 z m 397 521 l 293 521 l 293 624 b 322 704 293 653 290 688 b 374 701 335 711 354 713 b 397 626 397 688 397 668 z "},"ë":{"ha":667,"x_min":0,"x_max":0,"o":"m 188 1006 b 228 953 192 981 210 963 b 282 960 246 946 265 949 b 313 1013 304 974 313 994 b 283 1067 314 1036 301 1054 b 229 1074 265 1079 246 1081 b 188 1006 197 1061 183 1031 z m 371 1003 b 413 953 376 976 396 961 b 468 963 435 946 454 951 b 497 1017 490 978 497 1001 b 463 1071 496 1039 481 1058 b 408 1074 442 1082 422 1081 b 371 1003 378 1058 364 1029 z m 592 633 b 544 829 592 719 599 796 b 151 836 482 868 206 864 b 89 653 85 803 89 722 l 89 203 b 156 19 89 163 85 60 b 535 15 215 -15 478 -15 b 592 218 596 49 592 61 l 592 256 l 592 290 l 388 290 l 388 244 b 363 149 388 199 393 160 b 315 149 343 142 328 140 b 297 303 294 164 297 197 l 297 365 l 592 365 z m 397 521 l 293 521 l 293 624 b 322 704 293 653 290 688 b 374 701 335 711 354 713 b 397 626 397 688 397 668 z "},"ì":{"ha":358,"x_min":0,"x_max":0,"o":"m 265 978 b 103 1088 233 1007 138 1093 b 60 1053 83 1085 68 1071 b 57 1006 49 1036 50 1018 b 219 944 78 965 192 949 l 319 928 z m 89 0 l 283 0 l 283 843 l 89 843 z "},"í":{"ha":358,"x_min":0,"x_max":0,"o":"m 154 956 b 311 1029 183 964 294 990 b 310 1078 319 1049 318 1065 b 261 1111 299 1099 279 1110 b 113 989 219 1115 146 1028 l 58 928 z m 89 0 l 283 0 l 283 843 l 89 843 z "},"î":{"ha":358,"x_min":0,"x_max":0,"o":"m -6 926 l 69 944 b 186 972 90 950 175 972 b 246 958 189 972 246 958 b 303 944 265 951 292 947 l 379 926 l 176 1064 z m 89 0 l 283 0 l 283 843 l 89 843 z "},"ï":{"ha":358,"x_min":0,"x_max":0,"o":"m 33 983 b 72 931 38 958 56 940 b 128 938 90 924 110 926 b 157 990 150 951 157 972 b 129 1044 160 1014 147 1032 b 75 1051 110 1058 90 1058 b 33 983 43 1039 28 1008 z m 215 981 b 257 931 222 954 240 939 b 313 940 279 924 299 929 b 342 994 336 956 342 978 b 308 1049 340 1017 325 1036 b 254 1051 288 1060 268 1058 b 215 981 224 1036 210 1007 z m 89 0 l 283 0 l 283 843 l 89 843 z "},"ñ":{"ha":667,"x_min":0,"x_max":0,"o":"m 297 1057 b 157 954 231 1063 201 1028 b 375 940 244 1008 289 943 b 518 1043 447 938 479 961 b 297 1057 415 975 400 1049 z m 592 649 b 533 829 592 753 589 796 b 150 836 469 867 193 861 b 89 631 82 796 89 757 l 89 0 l 290 0 l 290 549 b 311 692 290 631 288 674 b 361 693 321 699 353 697 b 392 540 397 675 392 638 l 392 0 l 592 0 z "},"ò":{"ha":664,"x_min":0,"x_max":0,"o":"m 417 996 b 254 1106 385 1025 289 1113 b 211 1071 236 1103 219 1089 b 208 1024 201 1054 203 1036 b 372 963 229 983 343 968 l 472 946 z m 154 826 b 89 626 81 782 89 710 l 89 219 b 151 17 89 114 85 56 b 521 18 208 -17 467 -12 b 589 225 594 60 589 69 l 589 622 b 540 821 589 753 585 781 b 257 854 490 865 290 858 b 154 826 218 850 182 843 z m 364 696 b 390 553 394 681 390 617 l 390 297 b 364 154 390 203 394 169 b 313 156 353 149 322 150 b 290 296 286 172 290 235 l 290 547 b 300 682 290 622 289 668 b 364 696 317 703 350 703 z "},"ó":{"ha":664,"x_min":0,"x_max":0,"o":"m 307 974 b 464 1047 335 982 446 1008 b 461 1096 471 1067 469 1082 b 414 1129 450 1117 431 1128 b 265 1007 372 1133 299 1044 l 210 946 z m 154 826 b 89 626 81 782 89 710 l 89 219 b 151 17 89 114 85 56 b 521 18 208 -17 467 -12 b 589 225 594 60 589 69 l 589 622 b 540 821 589 753 585 781 b 257 854 490 865 290 858 b 154 826 218 850 182 843 z m 364 696 b 390 553 394 681 390 617 l 390 297 b 364 154 390 203 394 169 b 313 156 353 149 322 150 b 290 296 286 172 290 235 l 290 547 b 300 682 290 622 289 668 b 364 696 317 703 350 703 z "},"ô":{"ha":664,"x_min":0,"x_max":0,"o":"m 146 944 l 222 963 b 338 990 243 968 328 990 b 397 975 340 990 397 975 b 456 963 417 969 443 965 l 531 944 l 329 1081 z m 154 826 b 89 626 81 782 89 710 l 89 219 b 151 17 89 114 85 56 b 521 18 208 -17 467 -12 b 589 225 594 60 589 69 l 589 622 b 540 821 589 753 585 781 b 257 854 490 865 290 858 b 154 826 218 850 182 843 z m 364 696 b 390 553 394 681 390 617 l 390 297 b 364 154 390 203 394 169 b 313 156 353 149 322 150 b 290 296 286 172 290 235 l 290 547 b 300 682 290 622 289 668 b 364 696 317 703 350 703 z "},"õ":{"ha":664,"x_min":0,"x_max":0,"o":"m 299 1064 b 160 961 232 1069 203 1033 b 376 946 246 1014 290 949 b 519 1049 449 943 481 967 b 299 1064 417 982 401 1056 z m 154 826 b 89 626 81 782 89 710 l 89 219 b 151 17 89 114 85 56 b 521 18 208 -17 467 -12 b 589 225 594 60 589 69 l 589 622 b 540 821 589 753 585 781 b 257 854 490 865 290 858 b 154 826 218 850 182 843 z m 364 696 b 390 553 394 681 390 617 l 390 297 b 364 154 390 203 394 169 b 313 156 353 149 322 150 b 290 296 286 172 290 235 l 290 547 b 300 682 290 622 289 668 b 364 696 317 703 350 703 z "},"ö":{"ha":664,"x_min":0,"x_max":0,"o":"m 185 1001 b 225 949 189 975 207 958 b 279 954 243 942 261 944 b 310 1008 301 969 310 990 b 281 1061 311 1032 299 1050 b 226 1069 261 1075 243 1076 b 185 1001 194 1057 181 1026 z m 367 997 b 408 949 372 972 393 956 b 464 958 431 942 450 947 b 493 1013 488 974 493 996 b 460 1067 492 1035 478 1054 b 406 1069 439 1078 419 1076 b 367 997 375 1054 360 1025 z m 154 826 b 89 626 81 782 89 710 l 89 219 b 151 17 89 114 85 56 b 521 18 208 -17 467 -12 b 589 225 594 60 589 69 l 589 622 b 540 821 589 753 585 781 b 257 854 490 865 290 858 b 154 826 218 850 182 843 z m 364 696 b 390 553 394 681 390 617 l 390 297 b 364 154 390 203 394 169 b 313 156 353 149 322 150 b 290 296 286 172 290 235 l 290 547 b 300 682 290 622 289 668 b 364 696 317 703 350 703 z "},"÷":{"ha":290,"x_min":0,"x_max":0,"o":"m 82 497 l 106 497 l 224 1093 l 199 1093 z "},"ø":{"ha":358,"x_min":0,"x_max":0,"o":"m 89 1118 l 89 911 l 283 911 l 283 1118 z m 89 0 l 283 0 l 283 836 l 89 836 z "},"ù":{"ha":661,"x_min":0,"x_max":0,"o":"m 415 972 b 253 1081 383 1001 288 1088 b 210 1047 235 1078 218 1065 b 207 999 199 1031 201 1011 b 371 939 228 960 342 944 l 471 922 z m 89 843 l 89 224 b 150 17 89 153 81 57 b 532 18 206 -17 475 -15 b 588 224 594 54 588 114 l 588 843 l 390 843 l 390 310 b 363 163 390 213 393 176 b 313 164 351 156 322 156 b 289 311 283 183 289 215 l 289 843 z "},"ú":{"ha":661,"x_min":0,"x_max":0,"o":"m 304 950 b 463 1024 333 958 444 985 b 460 1072 469 1043 468 1058 b 413 1106 449 1093 429 1104 b 264 983 371 1111 297 1019 l 208 922 z m 89 843 l 89 224 b 150 17 89 153 81 57 b 532 18 206 -17 475 -15 b 588 224 594 54 588 114 l 588 843 l 390 843 l 390 310 b 363 163 390 213 393 176 b 313 164 351 156 322 156 b 289 311 283 183 289 215 l 289 843 z "},"û":{"ha":661,"x_min":0,"x_max":0,"o":"m 144 921 l 219 939 b 336 967 240 944 325 967 b 396 951 339 967 396 951 b 454 939 415 946 442 942 l 529 921 l 328 1057 z m 89 843 l 89 224 b 150 17 89 153 81 57 b 532 18 206 -17 475 -15 b 588 224 594 54 588 114 l 588 843 l 390 843 l 390 310 b 363 163 390 213 393 176 b 313 164 351 156 322 156 b 289 311 283 183 289 215 l 289 843 z "},"ü":{"ha":661,"x_min":0,"x_max":0,"o":"m 183 976 b 224 925 188 951 206 933 b 278 931 240 918 260 921 b 308 985 300 946 308 967 b 279 1038 310 1008 297 1026 b 225 1046 260 1051 240 1053 b 183 976 193 1033 178 1003 z m 365 974 b 407 925 371 949 392 932 b 464 933 429 918 449 922 b 492 989 486 950 492 972 b 458 1043 490 1011 476 1031 b 404 1046 438 1054 418 1053 b 365 974 374 1031 358 1001 z m 89 843 l 89 224 b 150 17 89 153 81 57 b 532 18 206 -17 475 -15 b 588 224 594 54 588 114 l 588 843 l 390 843 l 390 310 b 363 163 390 213 393 176 b 313 164 351 156 322 156 b 289 311 283 183 289 215 l 289 843 z "},"ÿ":{"ha":668,"x_min":0,"x_max":0,"o":"m 186 975 b 226 925 190 950 208 932 b 281 929 244 917 264 918 b 311 983 303 943 311 965 b 282 1036 313 1007 300 1025 b 228 1044 264 1051 244 1051 b 186 975 196 1032 182 1001 z m 369 972 b 411 925 375 947 394 931 b 465 932 433 917 451 922 b 496 988 489 949 496 971 b 461 1040 493 1010 479 1029 b 407 1044 440 1053 421 1051 b 369 972 376 1029 363 999 z m 89 814 l 89 189 b 125 25 89 106 88 54 b 382 14 172 -12 329 0 b 361 -107 383 -37 388 -83 b 99 -83 317 -146 140 -99 l 99 -235 b 535 -250 224 -283 450 -307 b 593 -61 606 -204 593 -106 l 593 843 l 385 843 l 385 308 b 360 161 385 222 388 179 b 314 160 342 150 324 153 b 290 311 286 174 290 207 l 290 843 l 89 843 z "},"ı":{"ha":358,"x_min":0,"x_max":0,"o":"m 89 0 l 283 0 l 283 843 l 89 843 z "},"Œ":{"ha":667,"x_min":0,"x_max":0,"o":"m 147 822 b 89 638 85 783 89 656 l 89 183 b 139 13 89 161 90 50 b 392 0 182 -21 344 -12 b 371 -140 392 -24 403 -118 b 308 -142 358 -147 317 -146 b 281 -54 276 -125 281 -89 l 100 -54 b 154 -271 97 -108 82 -225 b 531 -268 211 -307 481 -294 b 592 -67 601 -229 592 -89 l 592 835 l 418 835 l 418 801 b 147 822 354 844 211 863 z m 321 689 b 365 686 331 694 346 697 b 393 539 401 664 393 568 l 393 281 b 365 133 393 258 401 153 b 317 135 356 128 328 129 b 294 278 288 156 294 256 l 294 543 b 321 689 294 564 286 671 z "},"œ":{"ha":665,"x_min":0,"x_max":0,"o":"m 151 826 b 89 628 79 788 89 650 l 89 121 b 117 25 89 89 92 71 l 126 22 b 386 0 196 -43 310 -25 l 386 -265 b 394 -301 386 -267 383 -296 l 590 -301 l 590 828 l 415 828 l 415 797 b 151 826 363 850 210 858 z m 318 688 b 365 688 329 694 353 694 b 392 544 399 668 392 571 l 392 290 b 361 142 392 265 396 161 b 315 142 350 133 333 131 b 292 283 282 163 292 257 l 292 538 b 318 688 292 561 283 667 z "},"Ÿ":{"ha":843,"x_min":0,"x_max":0,"o":"m 397 1240 b 554 1313 425 1249 538 1275 b 551 1363 563 1332 561 1349 b 504 1394 542 1383 522 1393 b 356 1272 463 1399 390 1310 l 300 1213 z m 82 1096 l 311 438 l 311 0 l 533 0 l 533 438 l 776 1096 l 560 1096 l 457 788 l 433 693 l 411 782 l 307 1096 z "},"ƒ":{"ha":660,"x_min":0,"x_max":0,"o":"m 586 607 b 525 821 586 753 592 778 b 154 824 461 863 217 857 b 89 588 76 782 90 678 l 283 588 b 317 707 286 657 276 689 b 365 704 333 714 350 713 b 390 538 392 689 390 651 l 344 538 b 122 497 311 538 169 543 b 83 296 81 457 83 381 l 83 222 b 149 7 83 106 79 43 b 404 38 214 -26 339 -15 l 413 0 l 586 0 z m 392 385 l 392 331 b 361 156 392 229 397 178 b 318 150 351 150 332 144 b 290 196 308 154 293 169 b 307 376 283 247 288 357 b 392 385 331 397 354 392 z "},"ˆ":{"ha":667,"x_min":0,"x_max":0,"o":"m 592 638 b 521 833 592 724 599 807 b 392 842 492 843 425 842 b 268 782 340 842 288 821 l 268 836 l 89 836 l 89 0 l 297 0 l 297 538 b 321 681 297 597 294 661 b 369 682 336 692 357 690 b 396 539 400 665 396 592 l 396 0 l 592 0 z "},"˘":{"ha":464,"x_min":0,"x_max":0,"o":"m 106 1164 b 238 1099 149 1108 196 1097 b 397 1221 300 1101 358 1136 b 354 1194 397 1221 358 1199 b 82 1219 253 1139 174 1150 b 106 1164 85 1207 90 1183 z "},"˚":{"ha":293,"x_min":0,"x_max":0,"o":"m 83 1164 b 125 1106 88 1136 103 1117 b 189 1110 146 1096 171 1100 b 226 1171 215 1125 225 1149 b 196 1233 228 1201 214 1219 b 133 1242 176 1247 151 1247 b 83 1164 99 1229 79 1196 z m 129 1204 b 164 1213 135 1211 149 1215 b 192 1183 174 1211 188 1199 b 186 1146 196 1171 194 1157 b 150 1132 181 1139 165 1131 b 118 1154 138 1133 125 1142 b 129 1204 110 1171 113 1190 z "},"˜":{"ha":657,"x_min":0,"x_max":0,"o":"m 89 0 l 301 0 l 301 540 b 324 679 301 610 300 664 b 358 681 338 689 350 686 b 379 531 383 669 379 636 l 379 486 l 583 486 l 583 615 b 514 829 583 714 588 801 b 278 786 450 853 328 856 l 278 838 l 89 838 z "},"π":{"ha":654,"x_min":0,"x_max":0,"o":"m 539 8 b 581 188 586 40 581 72 l 581 646 b 507 835 581 724 583 806 b 267 793 436 861 318 851 l 267 828 l 89 828 l 89 -299 l 286 -299 l 286 -4 b 539 8 351 -29 486 -29 z m 313 692 b 358 686 322 697 342 697 b 379 543 381 672 379 646 l 379 290 b 353 140 379 204 383 157 b 304 140 340 132 319 132 b 282 282 281 154 282 199 l 282 539 b 313 692 282 644 278 672 z "},"‘":{"ha":332,"x_min":0,"x_max":0,"o":"m 182 814 l 265 814 l 215 1100 l 82 1100 z "},"’":{"ha":332,"x_min":0,"x_max":0,"o":"m 265 1100 l 131 1100 l 82 814 l 165 814 z "},"“":{"ha":569,"x_min":0,"x_max":0,"o":"m 89 968 l 89 781 l 265 781 l 265 969 l 206 969 l 275 1100 l 182 1100 z m 319 968 l 319 781 l 496 781 l 496 969 l 436 969 l 506 1100 l 413 1100 z "},"”":{"ha":569,"x_min":0,"x_max":0,"o":"m 496 913 l 496 1100 l 319 1100 l 319 911 l 379 911 l 310 781 l 403 781 z m 265 913 l 265 1100 l 89 1100 l 89 911 l 149 911 l 79 781 l 172 781 z "},"†":{"ha":632,"x_min":0,"x_max":0,"o":"m 89 994 l 89 210 b 147 18 89 118 82 51 b 528 19 208 -12 468 -15 b 585 235 592 56 585 124 l 585 456 l 397 456 l 397 317 b 364 156 397 240 401 174 b 318 160 354 150 329 151 b 296 303 292 176 296 229 l 296 699 l 557 699 l 557 846 l 296 846 l 296 994 z "},"‡":{"ha":476,"x_min":0,"x_max":0,"o":"m 92 1096 l 92 994 l 260 994 l 99 496 l 225 496 l 393 994 l 393 1096 z "},"•":{"ha":344,"x_min":0,"x_max":0,"o":"m 89 467 l 89 283 l 271 283 l 271 467 z "},"‰":{"ha":660,"x_min":0,"x_max":0,"o":"m 360 826 b 144 811 301 850 185 838 b 89 632 86 772 89 708 l 89 201 b 169 1 89 83 85 35 b 406 47 233 -24 354 -18 l 406 0 l 586 0 l 586 833 l 417 833 l 417 793 b 360 826 393 811 378 819 z m 304 661 b 363 675 317 675 339 686 b 393 608 399 660 393 626 l 393 304 b 364 154 393 228 397 174 b 317 154 351 147 332 144 b 293 297 290 172 293 225 l 293 524 b 304 661 293 589 290 644 z "},"‹":{"ha":476,"x_min":0,"x_max":0,"o":"m 394 933 l 394 988 b 358 1096 394 1028 399 1075 b 126 1094 318 1117 165 1117 b 89 961 83 1071 89 1011 l 89 904 l 193 904 l 207 904 l 207 922 b 219 1010 207 963 206 996 b 253 1014 228 1017 243 1018 b 276 993 265 1011 272 1004 b 274 889 279 983 282 904 b 214 867 263 867 244 867 l 214 785 b 271 775 231 785 257 785 b 282 636 290 757 286 654 b 261 603 279 618 274 608 b 222 604 249 596 231 597 b 204 694 201 615 204 651 l 204 739 l 86 739 l 86 639 b 124 519 86 617 81 546 b 365 519 168 493 321 492 b 400 651 403 542 400 571 l 400 738 b 343 833 400 799 403 814 b 394 933 399 851 394 881 z "},"›":{"ha":476,"x_min":0,"x_max":0,"o":"m 83 640 l 271 640 l 271 497 l 388 497 l 388 640 l 425 640 l 425 749 l 388 749 l 388 1099 l 281 1099 l 83 750 z m 271 897 l 271 749 l 197 749 z "},"⁄":{"ha":843,"x_min":0,"x_max":0,"o":"m 274 1300 b 314 1247 278 1275 296 1257 b 369 1254 332 1240 351 1243 b 399 1307 392 1268 399 1289 b 371 1361 400 1331 388 1349 b 315 1368 351 1374 332 1375 b 274 1300 283 1356 269 1325 z m 457 1297 b 499 1247 463 1271 482 1256 b 553 1257 521 1240 540 1246 b 583 1311 576 1272 583 1296 b 549 1365 582 1333 567 1353 b 496 1368 528 1376 508 1375 b 457 1297 464 1353 450 1324 z m 82 1096 l 311 438 l 311 0 l 533 0 l 533 438 l 776 1096 l 560 1096 l 457 788 l 433 693 l 411 782 l 307 1096 z "},"Ω":{"ha":435,"x_min":0,"x_max":0,"o":"m 203 1033 b 122 1018 163 1033 133 1025 b 89 907 85 997 89 956 l 89 881 b 117 767 89 826 85 790 b 239 751 147 749 225 756 b 256 701 258 746 256 721 b 240 644 256 674 258 654 b 211 644 233 638 218 638 b 196 682 196 651 196 667 l 196 722 l 89 722 l 89 689 b 104 583 89 626 89 599 b 204 557 126 560 183 557 l 204 425 l 251 425 l 251 557 b 321 569 275 556 313 565 b 364 624 350 582 358 596 b 344 832 369 653 379 803 b 215 850 318 856 240 840 b 199 885 197 860 199 876 b 213 946 199 907 197 938 b 239 947 218 949 233 950 b 256 885 260 938 258 908 l 360 885 b 344 1006 360 908 364 981 b 247 1033 328 1028 278 1035 l 247 1138 l 203 1138 z "},"∂":{"ha":658,"x_min":0,"x_max":0,"o":"m 393 843 b 138 836 335 869 192 875 b 89 674 86 799 89 740 l 89 183 b 139 19 89 124 86 58 b 407 39 176 -8 329 -43 l 407 0 l 563 0 l 585 0 l 585 1140 l 393 1140 z m 308 700 b 358 704 319 710 346 711 b 386 557 392 688 386 646 l 386 303 b 356 153 386 186 390 172 b 310 153 343 146 322 144 b 288 297 283 169 288 196 l 288 556 b 308 700 288 640 286 682 z "},"∆":{"ha":364,"x_min":0,"x_max":0,"o":"m 89 1114 l 89 904 l 289 904 l 289 1114 z m 89 60 b 63 -83 89 -29 92 -58 b -85 -85 35 -108 -50 -100 l -92 -215 b 238 -207 -21 -244 165 -260 b 290 -25 297 -162 290 -71 l 290 840 l 89 840 z "},"∏":{"ha":672,"x_min":0,"x_max":0,"o":"m 597 274 l 597 625 b 544 817 597 728 604 781 b 147 819 492 847 196 846 b 89 625 82 783 89 719 l 89 318 b 154 117 89 286 82 163 b 383 88 226 71 336 110 b 426 14 419 71 425 46 b 397 -142 428 -54 431 -126 b 313 -144 383 -147 325 -151 b 283 13 281 -128 283 -108 l 283 36 l 88 36 l 88 -57 b 151 -278 88 -161 79 -244 b 578 -271 219 -308 500 -321 b 628 58 651 -225 635 7 b 542 140 618 119 594 126 b 597 274 599 175 597 204 z m 329 682 b 374 679 333 685 361 689 b 394 538 396 664 394 626 l 394 408 b 365 260 394 300 399 278 b 314 260 354 254 329 250 b 293 400 290 276 293 317 l 293 529 b 329 682 293 638 289 669 z "},"√":{"ha":669,"x_min":0,"x_max":0,"o":"m 89 836 l 89 192 b 131 18 89 99 85 51 b 340 0 174 -14 311 -8 b 403 39 369 8 382 19 l 403 0 l 594 0 l 594 836 l 381 836 l 381 310 b 354 154 381 213 385 174 b 313 157 343 149 329 149 b 292 301 289 171 292 210 l 292 836 z "},"∞":{"ha":668,"x_min":0,"x_max":0,"o":"m 308 949 b 465 1022 336 957 449 983 b 463 1071 474 1040 471 1057 b 415 1103 451 1092 433 1100 b 267 982 374 1107 300 1018 l 211 921 z m 89 814 l 89 189 b 125 25 89 106 88 54 b 382 14 172 -12 329 0 b 361 -107 383 -37 388 -83 b 99 -83 317 -146 140 -99 l 99 -235 b 535 -250 224 -283 450 -307 b 593 -61 606 -204 593 -106 l 593 843 l 385 843 l 385 308 b 360 161 385 222 388 179 b 314 160 342 150 324 153 b 290 311 286 174 290 207 l 290 843 l 89 843 z "},"∫":{"ha":660,"x_min":0,"x_max":0,"o":"m 89 1139 l 89 0 l 264 0 l 264 46 b 514 8 318 -18 454 -17 b 586 189 594 42 586 96 l 586 654 b 531 838 586 740 593 800 b 289 840 472 871 339 879 l 289 1139 z m 304 696 b 357 701 315 704 333 711 b 385 551 390 688 385 636 l 385 301 b 358 153 385 207 390 171 b 311 153 343 144 325 143 b 286 300 282 171 286 210 l 286 551 b 304 696 286 615 283 678 z "},"ﬁ":{"ha":476,"x_min":0,"x_max":0,"o":"m 92 1106 l 92 769 l 208 769 b 228 794 214 778 218 786 b 265 794 233 797 257 799 b 282 719 286 781 282 761 l 282 688 b 267 601 282 622 282 608 b 226 597 258 596 233 593 b 211 681 208 608 211 629 l 211 704 l 89 704 l 89 635 b 128 514 89 590 85 540 b 365 514 175 486 315 488 b 404 626 408 538 404 581 l 404 797 b 382 879 404 832 404 861 b 210 889 349 908 232 901 l 210 1004 l 394 1004 l 394 1106 z "},"ﬂ":{"ha":476,"x_min":0,"x_max":0,"o":"m 401 972 b 364 1092 401 1024 407 1067 b 128 1092 319 1117 172 1115 b 89 988 86 1069 89 1015 l 89 618 b 128 511 89 589 85 538 b 363 510 174 485 319 486 b 404 635 413 538 404 601 l 404 788 b 382 868 404 824 404 850 b 210 881 357 889 239 888 l 210 918 b 226 1007 210 963 207 993 b 265 1008 239 1014 257 1013 b 282 926 286 997 282 967 l 401 926 z m 226 783 b 265 786 235 790 253 793 b 282 701 286 775 282 753 l 282 685 b 267 596 282 624 286 606 b 228 596 257 590 239 589 b 211 633 215 603 211 613 l 211 697 b 226 783 211 736 208 772 z "}}}
